<mxfile host="65bd71144e">
    <diagram id="UOyS8d8mwEbXSXmsSb4H" name="페이지-1">
        <mxGraphModel dx="764" dy="545" grid="1" gridSize="10" guides="1" tooltips="1" connect="1" arrows="1" fold="1" page="1" pageScale="1" pageWidth="1169" pageHeight="827" math="0" shadow="0">
            <root>
                <mxCell id="0"/>
                <mxCell id="1" parent="0"/>
                <mxCell id="7" value="Engine" style="html=1;" parent="1" vertex="1">
                    <mxGeometry x="510" y="310" width="110" height="50" as="geometry"/>
                </mxCell>
                <mxCell id="8" value="Car" style="html=1;" parent="1" vertex="1">
                    <mxGeometry x="280" y="380" width="110" height="50" as="geometry"/>
                </mxCell>
                <mxCell id="9" value="" style="endArrow=none;html=1;endSize=12;startArrow=diamondThin;startSize=14;startFill=0;edgeStyle=orthogonalEdgeStyle;align=left;verticalAlign=bottom;endFill=0;" parent="1" source="8" target="7" edge="1">
                    <mxGeometry x="-0.5" y="25" relative="1" as="geometry">
                        <mxPoint x="480" y="400" as="sourcePoint"/>
                        <mxPoint x="640" y="400" as="targetPoint"/>
                        <mxPoint as="offset"/>
                        <Array as="points">
                            <mxPoint x="335" y="335"/>
                        </Array>
                    </mxGeometry>
                </mxCell>
                <mxCell id="10" value="Transmission" style="html=1;" vertex="1" parent="1">
                    <mxGeometry x="510" y="460" width="110" height="50" as="geometry"/>
                </mxCell>
                <mxCell id="11" value="" style="endArrow=none;html=1;endSize=12;startArrow=diamondThin;startSize=14;startFill=0;edgeStyle=orthogonalEdgeStyle;align=left;verticalAlign=bottom;endFill=0;" edge="1" parent="1" source="8" target="10">
                    <mxGeometry x="-0.5" y="25" relative="1" as="geometry">
                        <mxPoint x="345" y="390" as="sourcePoint"/>
                        <mxPoint x="520" y="345" as="targetPoint"/>
                        <mxPoint as="offset"/>
                        <Array as="points">
                            <mxPoint x="335" y="485"/>
                        </Array>
                    </mxGeometry>
                </mxCell>
            </root>
        </mxGraphModel>
    </diagram>
</mxfile>
